<?xml version="1.0" standalone="no"?>
<!DOCTYPE svg PUBLIC "-//W3C//DTD SVG 20010904//EN"
 "http://www.w3.org/TR/2001/REC-SVG-20010904/DTD/svg10.dtd">
<svg version="1.0" xmlns="http://www.w3.org/2000/svg"
 width="230.000000pt" height="269.000000pt" viewBox="0 0 230.000000 269.000000"
 preserveAspectRatio="xMidYMid meet">

<g transform="translate(0.000000,269.000000) scale(0.100000,-0.100000)"
fill="#000000" stroke="none">
<path d="M695 2219 c-248 -143 -453 -263 -458 -268 -7 -7 297 -188 309 -184 5
1 550 315 584 335 11 7 94 -36 315 -162 165 -94 303 -172 306 -173 13 -4 318
178 311 185 -5 5 -831 480 -902 518 -11 6 -143 -65 -465 -251z"/>
<path d="M170 1253 l0 -508 444 -258 c244 -141 446 -257 450 -257 3 0 5 228 4
508 -3 494 -3 499 -8 175 l-5 -332 -287 167 -288 167 0 335 0 335 -97 55 c-53
30 -122 70 -155 88 l-58 34 0 -509z"/>
<path d="M1975 1672 l-150 -87 -3 -330 -2 -330 -293 -170 -292 -170 -3 -178
c-1 -97 1 -177 4 -177 4 0 207 116 451 257 l443 258 0 507 c0 280 -1 508 -2
508 -2 0 -70 -40 -153 -88z"/>
</g>
</svg>
