<?xml version="1.0" encoding="UTF-8"?>
<svg version="1.1" xmlns="http://www.w3.org/2000/svg" width="230" height="269">
<path d="M0 0 C0.83660156 0.54269531 1.67320313 1.08539063 2.53515625 1.64453125 C3.90946263 2.43350112 5.28455477 3.22110287 6.66015625 4.0078125 C8.28767091 4.98671668 9.91250975 5.97007853 11.53515625 6.95703125 C12.85966797 7.75717651 12.85966797 7.75717651 14.2109375 8.57348633 C21.20875311 12.81164357 28.16541013 17.11542299 35.11328125 21.43481445 C42.55629405 26.05609296 50.04167276 30.60582969 57.53515625 35.14453125 C68.37409708 41.7112581 79.17230782 48.34026191 89.93505859 55.03125 C92.77398038 56.79271434 95.61707549 58.54730476 98.4609375 60.30078125 C99.43490479 60.90180664 100.40887207 61.50283203 101.41235352 62.12207031 C103.2911472 63.28124786 105.17051852 64.43948982 107.05053711 65.59667969 C107.88593018 66.11262695 108.72132324 66.62857422 109.58203125 67.16015625 C110.32291992 67.61680664 111.06380859 68.07345703 111.82714844 68.54394531 C113.53515625 69.64453125 113.53515625 69.64453125 114.53515625 70.64453125 C114.63587665 73.54487221 114.67129796 76.42143147 114.66455078 79.32226562 C114.66717926 80.6913784 114.66717926 80.6913784 114.66986084 82.08815002 C114.67429576 85.13821261 114.67132798 88.18821795 114.66796875 91.23828125 C114.66864316 93.37740083 114.66961434 95.51652033 114.67086792 97.65563965 C114.67234855 102.1719637 114.67018543 106.68826808 114.66552734 111.20458984 C114.6610365 115.77393908 114.66089068 120.34324859 114.66552734 124.91259766 C114.67736859 136.87166108 114.66122925 148.82965126 114.57833958 160.78847122 C114.5420953 166.36956002 114.54337783 171.94796063 114.59307098 177.52893066 C114.61339285 180.61994027 114.59962567 183.71005786 114.57557297 186.80101013 C114.57050572 188.83268758 114.60845453 190.864333 114.64810181 192.89562988 C114.53138493 201.34153273 114.53138493 201.34153273 111.72668457 205.0098877 C107.99385868 208.26557178 103.99229336 210.68447207 99.30859375 212.33203125 C93.43876772 214.59861728 88.31562337 217.59825536 82.97265625 220.89453125 C81.12996215 221.98705979 79.28484312 223.07550721 77.4375 224.16015625 C70.96465996 227.97918668 64.49973568 231.81154044 58.03515625 235.64453125 C51.57057682 239.47752206 45.10565254 243.30987582 38.6328125 247.12890625 C37.70726562 247.67530762 36.78171875 248.22170898 35.828125 248.78466797 C34.02857082 249.84567121 32.22781571 250.90464059 30.42578125 251.96142578 C25.88803779 254.62945087 21.39185196 257.34697724 16.9375 260.15234375 C15.57612915 260.99974121 15.57612915 260.99974121 14.18725586 261.86425781 C12.46691103 262.93798864 10.75485031 264.02515292 9.05297852 265.12792969 C8.28397217 265.60520508 7.51496582 266.08248047 6.72265625 266.57421875 C5.72298828 267.21206299 5.72298828 267.21206299 4.703125 267.86279297 C0.84200708 269.25505644 -2.3645887 268.14203327 -5.99658203 266.49975586 C-6.83431152 266.02030518 -7.67204102 265.54085449 -8.53515625 265.046875 C-9.4991333 264.50111816 -10.46311035 263.95536133 -11.45629883 263.39306641 C-12.49036865 262.7954248 -13.52443848 262.1977832 -14.58984375 261.58203125 C-15.68514404 260.9586084 -16.78044434 260.33518555 -17.90893555 259.69287109 C-20.83984427 258.02262848 -23.76607902 256.34470619 -26.69049072 254.66314697 C-29.57354616 253.00805041 -32.46281479 251.36388545 -35.3515625 249.71875 C-41.7986936 246.04444613 -48.2385757 242.3576152 -54.67724609 238.66851807 C-60.04234973 235.595234 -65.40962935 232.52575254 -70.77734375 229.45703125 C-71.35564941 229.12636658 -71.93395508 228.7957019 -72.52978516 228.45501709 C-83.33332539 222.2789124 -94.16137 216.14673598 -105.00317383 210.03808594 C-106.22170044 209.34827637 -106.22170044 209.34827637 -107.46484375 208.64453125 C-108.69879883 208.19190918 -109.93275391 207.73928711 -111.20410156 207.27294922 C-113.01277161 206.22033691 -113.01277161 206.22033691 -114.46484375 204.64453125 C-115.55656591 200.42874424 -115.41673367 196.25176641 -115.3671875 191.91796875 C-115.3806572 190.61464096 -115.39412689 189.31131317 -115.40800476 187.9684906 C-115.44352851 184.39676735 -115.43522734 180.82649791 -115.41431427 177.25470352 C-115.39016093 172.74471696 -115.39444843 168.23465249 -115.39362335 163.72461224 C-115.3934597 162.96189416 -115.39329605 162.19917608 -115.39312744 161.41334534 C-115.39303932 160.64553804 -115.3929512 159.87773075 -115.39286041 159.08665657 C-115.39060645 156.72273751 -115.38234881 154.35888422 -115.3739624 151.99497986 C-115.35483124 141.75511357 -115.69864281 131.57913215 -116.26416969 121.35613251 C-116.49726532 116.88056759 -116.65967782 112.40189781 -116.81810665 107.92314148 C-116.94997165 104.35412791 -117.12628503 100.79961062 -117.40988159 97.23919678 C-118.7980311 79.388149 -118.7980311 79.388149 -115.46484375 71.64453125 C-109.57330391 64.87933001 -101.6650763 61.00912239 -93.66900635 57.22836304 C-88.67729455 54.76093775 -84.10293001 51.71106411 -79.46484375 48.64453125 C-77.66474327 47.49558538 -75.86287839 46.34939515 -74.05859375 45.20703125 C-68.02001658 41.36430032 -61.99215692 37.50489724 -55.96484375 33.64453125 C-36.7661815 21.35005448 -36.7661815 21.35005448 -29.38891602 16.6875 C-24.90649213 13.85294749 -20.45557347 10.98331897 -16.046875 8.03515625 C-14.7472583 7.17905762 -14.7472583 7.17905762 -13.42138672 6.30566406 C-11.78424027 5.22608038 -10.15629525 4.13236487 -8.53955078 3.02246094 C-3.20794413 -0.46263537 -3.20794413 -0.46263537 0 0 Z " fill="#96A5E9" transform="translate(115.46484375,0.35546875)"/>
<path d="M0 0 C2.37402344 1.06298828 2.37402344 1.06298828 4.859375 2.5703125 C5.79716797 3.12976563 6.73496094 3.68921875 7.70117188 4.265625 C8.70728516 4.87921875 9.71339844 5.4928125 10.75 6.125 C12.92065834 7.42131029 15.09257264 8.71551941 17.265625 10.0078125 C18.38130859 10.67329102 19.49699219 11.33876953 20.64648438 12.02441406 C25.88036529 15.10773995 31.1878368 18.0542858 36.5 21 C48.76825871 27.8287039 60.89791117 34.88188047 73 42 C74.76038535 43.03390748 76.5208007 44.06776391 78.28125 45.1015625 C82.18941332 47.39780464 86.09546351 49.69759669 90 52 C86.54024522 54.89877771 83.05831423 57.230346 79.11328125 59.41796875 C78.01048828 60.03220703 76.90769531 60.64644531 75.77148438 61.27929688 C74.63001953 61.90900391 73.48855469 62.53871094 72.3125 63.1875 C71.15943359 63.82880859 70.00636719 64.47011719 68.81835938 65.13085938 C60.51959325 69.74020337 60.51959325 69.74020337 58 71 C55.85888672 70.05053711 55.85888672 70.05053711 53.1796875 68.52734375 C52.18090576 67.96402344 51.18212402 67.40070313 50.15307617 66.8203125 C49.07131104 66.19898437 47.9895459 65.57765625 46.875 64.9375 C45.76294189 64.30714844 44.65088379 63.67679688 43.50512695 63.02734375 C34.7278915 58.03618469 26.00137935 52.9557366 17.32177734 47.79663086 C14.56371261 46.16849548 11.78342179 44.58429752 9 43 C7.98534668 42.38286133 6.97069336 41.76572266 5.92529297 41.12988281 C0.666767 37.92706641 0.666767 37.92706641 -5.24731445 37.2421875 C-7.47088725 38.197568 -9.27817119 39.34738598 -11.25 40.75 C-12.79510978 41.7246929 -14.34071012 42.69860845 -15.88671875 43.671875 C-17.11334229 44.47915039 -17.11334229 44.47915039 -18.36474609 45.30273438 C-24.15199069 49.0300759 -30.19129071 52.35730766 -36.16479492 55.77490234 C-40.84958479 58.48113718 -45.40237193 61.21667618 -49.78125 64.3984375 C-57.77068207 70.07163941 -57.77068207 70.07163941 -62 71 C-67.19782045 69.87120755 -70.76133315 67.54237987 -74.99658203 64.41992188 C-78.6407508 61.83711837 -82.5641051 59.71637079 -86.4375 57.5 C-88.96364787 56.00875089 -91.48157281 54.50427474 -94 53 C-91.5849251 50.32186248 -88.98947088 48.6956489 -85.86328125 46.91796875 C-84.82381348 46.32314697 -83.7843457 45.7283252 -82.71337891 45.11547852 C-81.59108887 44.47924561 -80.46879883 43.8430127 -79.3125 43.1875 C-77.53455888 42.17242204 -75.75762236 41.15560024 -73.98071289 40.13871765 C-72.76634689 39.44392244 -71.55166262 38.74968321 -70.33666992 38.0559845 C-64.57572836 34.76521185 -58.84883837 31.41733619 -53.125 28.0625 C-46.62044359 24.25564809 -40.10123843 20.4762905 -33.5546875 16.7421875 C-32.92499054 16.38299728 -32.29529358 16.02380707 -31.64651489 15.6537323 C-28.57872881 13.90485931 -25.50935917 12.15882898 -22.43798828 10.41625977 C-21.32407715 9.78260498 -20.21016602 9.1489502 -19.0625 8.49609375 C-17.48662109 7.60059814 -17.48662109 7.60059814 -15.87890625 6.68701172 C-12.75724903 4.85775024 -9.74513556 2.90657428 -6.78125 0.83227539 C-4.33762873 -0.30948789 -2.67528647 -0.29789977 0 0 Z " fill="#0B3281" transform="translate(117,22)"/>
<path d="M0 0 C0 33.66 0 67.32 0 102 C-7.59 106.29 -15.18 110.58 -23 115 C-27.40817246 117.58724891 -31.80571388 120.18221027 -36.1875 122.8125 C-46.89891857 129.20308914 -57.6896103 135.44159079 -68.5378418 141.59692383 C-74.44577652 144.95203111 -80.302601 148.35762339 -86.07202148 151.94677734 C-88 153 -88 153 -90 153 C-90 141.12 -90 129.24 -90 117 C-85.875 114.64875 -81.75 112.2975 -77.5 109.875 C-56.24240959 97.88692375 -56.24240959 97.88692375 -35.32788086 85.32543945 C-33 84 -33 84 -31 84 C-31.0199855 83.18647064 -31.03997101 82.37294128 -31.06056213 81.53475952 C-31.24115527 73.85497857 -31.37804246 66.17623138 -31.46630955 58.49487877 C-31.51321686 54.54595508 -31.57679045 50.59879017 -31.67895508 46.65087891 C-31.77699952 42.83817006 -31.83060624 39.0271483 -31.85389519 35.21327591 C-31.87048204 33.76101742 -31.90287767 32.30884797 -31.95157051 30.85731125 C-32.31691537 19.5115131 -32.31691537 19.5115131 -29.12765503 15.85098267 C-26.81480164 14.28199513 -24.55812515 13.11583635 -22 12 C-21.03191406 11.4117041 -20.06382812 10.8234082 -19.06640625 10.21728516 C-18.24011719 9.74597168 -17.41382813 9.2746582 -16.5625 8.7890625 C-15.64855469 8.26699219 -14.73460937 7.74492188 -13.79296875 7.20703125 C-12.41044922 6.42392578 -12.41044922 6.42392578 -11 5.625 C-10.04738281 5.07972656 -9.09476562 4.53445312 -8.11328125 3.97265625 C-1.13375235 0 -1.13375235 0 0 0 Z " fill="#0B3280" transform="translate(213,93)"/>
<path d="M0 0 C10.34609855 5.64332648 20.67369649 11.32053307 31 17 C31 39.44 31 61.88 31 85 C32.65 85.66 34.3 86.32 36 87 C37.57373278 87.8205546 39.13201455 88.67124431 40.67578125 89.546875 C41.57498291 90.05549072 42.47418457 90.56410645 43.40063477 91.08813477 C44.36155029 91.63655029 45.32246582 92.18496582 46.3125 92.75 C47.31273193 93.318396 48.31296387 93.88679199 49.34350586 94.47241211 C56.93786709 98.79880725 64.50706724 103.16851905 72.0625 107.5625 C73.56840698 108.43696777 73.56840698 108.43696777 75.10473633 109.32910156 C76.0511499 109.88178711 76.99756348 110.43447266 77.97265625 111.00390625 C78.80031494 111.48674072 79.62797363 111.9695752 80.48071289 112.46704102 C81.31207764 112.97291748 82.14344238 113.47879395 83 114 C84.081604 114.56033936 85.16320801 115.12067871 86.27758789 115.69799805 C89 118 89 118 89.68115234 121.57519531 C89.68020788 122.99319346 89.64661261 124.41142525 89.5859375 125.828125 C89.57744781 126.57713074 89.56895813 127.32613647 89.56021118 128.09783936 C89.5266993 130.48337469 89.45143886 132.86549212 89.375 135.25 C89.34489687 136.86974273 89.31752165 138.48953863 89.29296875 140.109375 C89.22691723 144.07422775 89.12342313 148.03653509 89 152 C85.81478834 151.3495786 83.34916758 150.2229883 80.52734375 148.62109375 C79.64216064 148.12053467 78.75697754 147.61997559 77.8449707 147.10424805 C76.88550537 146.55422119 75.92604004 146.00419434 74.9375 145.4375 C73.41805786 144.57282104 73.41805786 144.57282104 71.86791992 143.69067383 C63.00104816 138.62244209 54.22103156 133.410798 45.44799805 128.18237305 C33.6972509 121.1927842 21.82646944 114.41836671 9.93652344 107.66894531 C6.62124918 105.78474055 3.31087318 103.89192753 0 102 C0 68.34 0 34.68 0 0 Z " fill="#0C3281" transform="translate(17,93)"/>
<path d="M0 0 C1.46759766 0.87205078 1.46759766 0.87205078 2.96484375 1.76171875 C3.53517334 2.08567627 4.10550293 2.40963379 4.69311523 2.7434082 C6.0150801 3.50214695 7.32636984 4.27966133 8.62890625 5.07128906 C11.19883513 6.62892208 13.79773118 8.13000865 16.40234375 9.62890625 C20.49870634 11.99354402 24.58200804 14.37870534 28.65625 16.78125 C34.70966069 20.34625723 40.79874084 23.84599111 46.90234375 27.32421875 C47.81056885 27.84201904 48.71879395 28.35981934 49.65454102 28.89331055 C51.73661239 30.07954787 53.81916098 31.26493461 55.90234375 32.44921875 C55.90234375 33.43921875 55.90234375 34.42921875 55.90234375 35.44921875 C53.26001383 36.97363986 50.61768193 38.49805754 47.9753418 40.02246094 C45.65646167 41.36029534 43.33760905 42.69817727 41.01879883 44.03613281 C35.47019762 47.23759156 29.9213704 50.4386545 24.37115479 53.63731384 C22.58703954 54.66554474 20.80302603 55.69395191 19.01904297 56.72241211 C16.76957074 58.01914973 14.5199029 59.31554811 12.27001953 60.61157227 C11.24505371 61.20252686 10.22008789 61.79348145 9.1640625 62.40234375 C8.26647217 62.91958008 7.36888184 63.43681641 6.4440918 63.96972656 C4.68428572 64.99406859 2.95000862 66.06307385 1.23852539 67.16625977 C-1.09765625 68.44921875 -1.09765625 68.44921875 -3.73828125 68.0234375 C-8.62476913 65.73360655 -13.21610719 63.02553182 -17.84765625 60.26171875 C-19.9838706 58.99914619 -22.12060896 57.7374599 -24.2578125 56.4765625 C-25.37043457 55.81897949 -26.48305664 55.16139648 -27.62939453 54.48388672 C-31.16383112 52.40348653 -34.72003057 50.36224873 -38.28125 48.328125 C-38.86929413 47.99168472 -39.45733826 47.65524445 -40.0632019 47.30860901 C-42.91636225 45.67648637 -45.77152397 44.04805419 -48.62988281 42.42504883 C-49.66467773 41.83232178 -50.69947266 41.23959473 -51.765625 40.62890625 C-53.13110474 39.85135986 -53.13110474 39.85135986 -54.52416992 39.05810547 C-57.22648978 37.36867488 -59.64874289 35.48505907 -62.09765625 33.44921875 C-49.46960064 26.06419959 -36.82922858 18.70113275 -24.16015625 11.38671875 C-23.09039551 10.76853271 -22.02063477 10.15034668 -20.91845703 9.51342773 C-18.90548078 8.35243694 -16.88866154 7.19807493 -14.86743164 6.05151367 C-13.07543536 5.01485686 -11.30404921 3.94134995 -9.56030273 2.82543945 C-3.90328057 -0.69402593 -3.90328057 -0.69402593 0 0 Z " fill="#FCFDFD" transform="translate(117.09765625,58.55078125)"/>
<path d="M0 0 C0 22.11 0 44.22 0 67 C-9.24 72.28 -18.48 77.56 -28 83 C-41.66144868 90.72013637 -41.66144868 90.72013637 -55 99 C-55.99 99 -56.98 99 -58 99 C-58.33 77.55 -58.66 56.1 -59 34 C-31.325 17.85625 -31.325 17.85625 -17.7734375 10.08789062 C-13.24055859 7.48120405 -8.73197828 4.86194213 -4.3125 2.06640625 C-1 0 -1 0 0 0 Z " fill="#FCFCFD" transform="translate(182,110)"/>
<path d="M0 0 C3.3779741 1.32619175 6.51778979 2.75564953 9.67578125 4.546875 C10.57498291 5.05549072 11.47418457 5.56410645 12.40063477 6.08813477 C13.36155029 6.63655029 14.32246582 7.18496582 15.3125 7.75 C16.8128479 8.60259399 16.8128479 8.60259399 18.34350586 9.47241211 C25.93786709 13.79880725 33.50706724 18.16851905 41.0625 22.5625 C42.06643799 23.14547852 43.07037598 23.72845703 44.10473633 24.32910156 C45.0511499 24.88178711 45.99756348 25.43447266 46.97265625 26.00390625 C48.21414429 26.72815796 48.21414429 26.72815796 49.48071289 27.46704102 C50.31207764 27.97291748 51.14344238 28.47879395 52 29 C53.54186729 29.83593941 53.54186729 29.83593941 55.11488342 30.68876648 C58 33 58 33 58.7215271 35.9866333 C58.70820343 37.15023376 58.69487976 38.31383423 58.68115234 39.51269531 C58.68246658 40.47917496 58.68246658 40.47917496 58.68380737 41.46517944 C58.67963864 43.58741036 58.63303517 45.70644917 58.5859375 47.828125 C58.57474245 49.3021268 58.56620372 50.77615097 58.56021118 52.25018311 C58.53733603 56.1240029 58.47842752 59.99646608 58.4119873 63.86975098 C58.35053439 67.82443896 58.32318996 71.77934686 58.29296875 75.734375 C58.22868008 83.49020086 58.12632026 91.24491013 58 99 C56.27610308 98.0615335 54.552434 97.12264846 52.82885742 96.18359375 C51.38901741 95.39940063 51.38901741 95.39940063 49.92008972 94.59936523 C45.3631158 92.10346053 40.83595008 89.55602571 36.3125 87 C35.0430957 86.28650391 35.0430957 86.28650391 33.74804688 85.55859375 C31.79609922 84.45621991 29.86630655 83.31417829 27.95361328 82.14501953 C24.73194915 80.26953859 21.40828502 78.9730319 17.93310547 77.63232422 C11.11289285 74.74197624 4.7775099 71.8245862 0 66 C-3.63857221 56.02051329 -2.38330135 44.85446725 -1.64794922 34.44360352 C-1.40001078 30.55800725 -1.29234513 26.66860778 -1.171875 22.77734375 C-0.91626376 15.17457311 -0.5083591 7.59051601 0 0 Z " fill="#FDFDFD" transform="translate(48,112)"/>
</svg>
